<svg height="512" viewBox="0 0 44 56" width="512" xmlns="http://www.w3.org/2000/svg"><g id="Page-1" fill="none" fill-rule="evenodd"><g id="005---heart-lock" fill="rgb(255,0,0)" fill-rule="nonzero"><path id="Shape" d="m36 12v2.3c-.8180543-.201175-1.6575746-.3019175-2.5-.3-.36 0-.71.01-1.05.04-.15.01-.3.02-.45.04v-2.08c-.0060592-4.41576577-3.5842342-7.99394081-8-8h-4c-4.4157658.00605919-7.9939408 3.58423423-8 8v2.08c-.05287-.008629-.106467-.0119788-.16-.01h-.01c-.4416062-.0490383-.8856859-.0724109-1.33-.07-.84242539-.0019175-1.68194571.098825-2.5.3v-2.3c.00551405-6.62513166 5.3748683-11.99448595 12-12h4c6.6251317.00551405 11.9944859 5.37486834 12 12z"/><path id="Shape" d="m36.61 16.58c-.24-.09-.49-.18-.74-.25-.7714555-.2166039-1.5687165-.3276149-2.37-.33-.5850548.0001899-1.1695264.0369281-1.75.11-.18.02-.35.05-.52.08h-.03c-3.2514469.5733941-6.2164018 2.2213738-8.42 4.68-.1873029.240402-.4752459.3806819-.78.38-.3052809.0029981-.5941963-.1377555-.78-.38-2.2041025-2.4561588-5.1693435-4.1007759-8.42-4.67-.7591882-.1349723-1.5289095-.2019046-2.3-.2-1.06335932.0020915-2.11736884.1986592-3.11.58-4.33 1.69-7.39 6.83-7.39 13.06 0 8.74 5.77 20.84 22 26.31 16.23-5.47 22-17.57 22-26.31 0-6.23-3.06-11.37-7.39-13.06zm-26.11 3.42c-4.069 0-6.5 4.9-6.5 9.636 0 .5522847-.44771525 1-1 1s-1-.4477153-1-1c0-5.719 3.179-11.636 8.5-11.636.5522847 0 1 .4477153 1 1s-.4477153 1-1 1zm13.669 15.353.69 5.523c.0355602.2845624-.05276.570697-.2425222.7857099-.1897623.2150129-.4627022.3382092-.7494778.3382901h-3.734c-.2867756-.0000809-.5597155-.1232772-.7494778-.3382901-.1897622-.2150129-.2780824-.5011475-.2425222-.7857099l.69-5.523c-1.4902819-.9617815-2.1692253-2.7901107-1.6678917-4.4914715.5013337-1.7013607 2.0632052-2.8693973 3.8368917-2.8693973s3.335558 1.1680366 3.8368917 2.8693973c.5013336 1.7013608-.1776098 3.52969-1.6678917 4.4914715zm16.831-4.717c-.5522847 0-1-.4477153-1-1 0-4.736-2.431-9.636-6.5-9.636-.5522847 0-1-.4477153-1-1s.4477153-1 1-1c5.321 0 8.5 5.917 8.5 11.636 0 .2652165-.1053568.5195704-.2928932.7071068s-.4418903.2928932-.7071068.2928932z"/></g></g></svg>